<svg width="1400" height="760" viewBox="0 0 1400 760" xmlns="http://www.w3.org/2000/svg" role="img" aria-label="Price Monitoring Report Service hero illustration">
  <defs>
    <linearGradient id="bg" x1="0" y1="0" x2="1" y2="1">
      <stop offset="0%" stop-color="#ffffff"/>
      <stop offset="100%" stop-color="#f3f4f6"/>
    </linearGradient>
    <linearGradient id="acc" x1="0" y1="0" x2="1" y2="1">
      <stop offset="0%" stop-color="#047857"/>
      <stop offset="100%" stop-color="#b45309"/>
    </linearGradient>
    <filter id="soft" x="-20%" y="-20%" width="140%" height="140%">
      <feGaussianBlur stdDeviation="16"/>
    </filter>
  </defs>

  <rect width="1400" height="760" fill="url(#bg)"/>
  <circle cx="170" cy="90" r="110" fill="#047857" opacity="0.2" filter="url(#soft)"/>
  <circle cx="1220" cy="650" r="140" fill="#b45309" opacity="0.2" filter="url(#soft)"/>

  <rect x="80" y="90" width="1240" height="580" rx="28" fill="#ffffff" stroke="#d1d5db" stroke-width="2"/>
  <rect x="80" y="90" width="1240" height="120" rx="28" fill="url(#acc)"/>
  <circle cx="130" cy="150" r="14" fill="#ffffff" opacity="0.9"/>
  <circle cx="170" cy="150" r="14" fill="#ffffff" opacity="0.6"/>
  <circle cx="210" cy="150" r="14" fill="#ffffff" opacity="0.4"/>

  <text x="250" y="158" font-family="Sora, Arial, sans-serif" font-size="38" fill="#ffffff" font-weight="700">Price Monitoring Report Service</text>

  <rect x="130" y="250" width="420" height="360" rx="20" fill="#f8fafc" stroke="#e5e7eb"/>
  <rect x="150" y="290" width="220" height="16" rx="8" fill="#047857" opacity="0.85"/>
  <rect x="150" y="330" width="340" height="12" rx="6" fill="#cbd5e1"/>
  <rect x="150" y="356" width="300" height="12" rx="6" fill="#cbd5e1"/>
  <rect x="150" y="382" width="260" height="12" rx="6" fill="#cbd5e1"/>
  <rect x="150" y="430" width="120" height="120" rx="16" fill="url(#acc)"/>
  <rect x="290" y="430" width="120" height="120" rx="16" fill="#065f46" opacity="0.92"/>
  <rect x="430" y="430" width="90" height="120" rx="16" fill="#dbeafe"/>

  <rect x="590" y="250" width="680" height="170" rx="20" fill="#f8fafc" stroke="#e5e7eb"/>
  <rect x="620" y="286" width="280" height="14" rx="7" fill="#047857"/>
  <rect x="620" y="320" width="610" height="10" rx="5" fill="#cbd5e1"/>
  <rect x="620" y="346" width="570" height="10" rx="5" fill="#cbd5e1"/>
  <rect x="620" y="372" width="530" height="10" rx="5" fill="#cbd5e1"/>

  <rect x="590" y="450" width="680" height="160" rx="20" fill="#f8fafc" stroke="#e5e7eb"/>
  <polyline points="640,560 720,520 800,545 900,500 980,535 1060,490 1160,525 1230,495"
            fill="none" stroke="#b45309" stroke-width="8" stroke-linecap="round" stroke-linejoin="round"/>
  <circle cx="720" cy="520" r="7" fill="#b45309"/>
  <circle cx="900" cy="500" r="7" fill="#b45309"/>
  <circle cx="1060" cy="490" r="7" fill="#b45309"/>
  <rect x="620" y="474" width="200" height="14" rx="7" fill="#047857"/>
</svg>
