<svg width="1400" height="880" viewBox="0 0 1400 880" xmlns="http://www.w3.org/2000/svg" role="img" aria-label="Price Monitoring Report Service mock screenshot">
  <defs>
    <linearGradient id="bg2" x1="0" y1="0" x2="1" y2="1">
      <stop offset="0%" stop-color="#f8fafc"/>
      <stop offset="100%" stop-color="#eef2ff"/>
    </linearGradient>
    <linearGradient id="g2" x1="0" y1="0" x2="1" y2="1">
      <stop offset="0%" stop-color="#047857"/>
      <stop offset="100%" stop-color="#b45309"/>
    </linearGradient>
  </defs>
  <rect width="1400" height="880" fill="url(#bg2)"/>

  <rect x="120" y="80" width="1160" height="720" rx="28" fill="#ffffff" stroke="#d1d5db" stroke-width="2"/>
  <rect x="120" y="80" width="1160" height="78" rx="28" fill="#065f46"/>
  <text x="170" y="128" font-family="Sora, Arial" font-size="28" fill="#ffffff" font-weight="700">Price Monitoring Report Service Dashboard Mock</text>

  <rect x="160" y="190" width="300" height="180" rx="16" fill="#f8fafc" stroke="#e5e7eb"/>
  <rect x="186" y="220" width="140" height="14" rx="7" fill="#047857"/>
  <text x="186" y="278" font-family="Sora, Arial" font-size="40" fill="#0f172a" font-weight="800">87%</text>
  <rect x="186" y="300" width="230" height="10" rx="5" fill="#cbd5e1"/>

  <rect x="490" y="190" width="300" height="180" rx="16" fill="#f8fafc" stroke="#e5e7eb"/>
  <rect x="516" y="220" width="140" height="14" rx="7" fill="#b45309"/>
  <text x="516" y="278" font-family="Sora, Arial" font-size="40" fill="#0f172a" font-weight="800">132</text>
  <rect x="516" y="300" width="230" height="10" rx="5" fill="#cbd5e1"/>

  <rect x="820" y="190" width="420" height="180" rx="16" fill="#f8fafc" stroke="#e5e7eb"/>
  <rect x="846" y="220" width="170" height="14" rx="7" fill="url(#g2)"/>
  <polyline points="850,326 910,292 970,306 1030,270 1090,294 1150,248 1210,274"
            fill="none" stroke="#047857" stroke-width="7" stroke-linecap="round" stroke-linejoin="round"/>

  <rect x="160" y="400" width="1080" height="360" rx="16" fill="#f8fafc" stroke="#e5e7eb"/>
  <rect x="190" y="440" width="220" height="14" rx="7" fill="#047857"/>
  <rect x="190" y="478" width="430" height="10" rx="5" fill="#cbd5e1"/>
  <rect x="190" y="502" width="390" height="10" rx="5" fill="#cbd5e1"/>
  <rect x="190" y="526" width="350" height="10" rx="5" fill="#cbd5e1"/>

  <g transform="translate(700,450)">
    <rect width="500" height="270" rx="12" fill="#ffffff" stroke="#e5e7eb"/>
    <rect x="20" y="24" width="140" height="12" rx="6" fill="#b45309"/>
    <rect x="20" y="54" width="460" height="8" rx="4" fill="#cbd5e1"/>
    <rect x="20" y="74" width="430" height="8" rx="4" fill="#cbd5e1"/>
    <rect x="20" y="94" width="410" height="8" rx="4" fill="#cbd5e1"/>
    <rect x="20" y="130" width="130" height="120" rx="10" fill="#047857" opacity="0.15"/>
    <rect x="170" y="130" width="130" height="120" rx="10" fill="#b45309" opacity="0.15"/>
    <rect x="320" y="130" width="160" height="120" rx="10" fill="#065f46" opacity="0.14"/>
  </g>
</svg>
